<svg xmlns="http://www.w3.org/2000/svg" version="1.1" xmlns:xlink="http://www.w3.org/1999/xlink" xmlns:svgjs="http://svgjs.dev/svgjs" width="100%" height="100%" viewBox="0 0 1000 600"><rect width="1000" height="600" x="0" y="0" fill="#00214d"/><g><circle r="166.66666666666666" cx="302.07351175944007" cy="324.2957384818202" fill="#141414" transform="matrix(0.9231438296763713,0,0,0.9231438296763713,0,0.6283844541595869)"/><path d="M343.3671780633564 384.33189341890045L343.3671780633564 399.29576344231697L260.77986322586844 399.29576344231697L260.77986322586844 249.2957625234818L277.45991150146756 249.2957625234818L277.45991150146756 384.33189341890045L343.3671780633564 384.33189341890045Z " fill="#70da1c" transform="matrix(0.9231438296763713,0,0,0.9231438296763713,0,0.6283844541595869)"/><path d="M630.5645495905861 383.01380329782404L630.5645495905861 397.2354738775511L552.0735186042862 397.2354738775511L552.0735186042862 254.6753877041107L567.9262459708228 254.6753877041107L567.9262459708228 383.01380329782404L630.5645495905861 383.01380329782404ZM642.5256326938576 345.5281122325477Q642.5256326938576 317.2850762925265 652.6267387595389 304.7230775309568Q662.6992297938726 292.1610787693871 686.7072410944581 292.1610787693871Q710.7152523950435 292.1610787693871 720.7018983353347 304.7230775309568Q730.6885442756259 317.2850762925265 730.6885442756259 345.5281122325477Q730.6885442756259 373.7425331412214 721.2169688995904 386.53345215357143Q711.745393523555 399.2957561345739 686.6213960004155 399.2957561345739Q661.4687834459285 399.2957561345739 651.997208069893 386.53345215357143Q642.5256326938576 373.7425331412214 642.5256326938576 345.5281122325477ZM658.3783600603942 345.21334688772475Q658.3783600603942 367.76199158958565 663.8438310477743 376.8329565267556Q669.3093020351542 385.90392146392554 686.7072410944581 385.90392146392554Q704.1337951851095 385.90392146392554 709.4848060470994 376.94741665214576Q714.8358169090892 367.990911840366 714.8358169090892 345.3278070131149Q714.8358169090892 322.66470218586386 708.8552753574535 314.10880781294964Q702.8747338058178 305.5529134400354 686.7072410944581 305.5529134400354Q670.5397483830984 305.5529134400354 664.4733617374201 314.10880781294964Q658.3783600603942 322.66470218586386 658.3783600603942 345.21334688772475ZM801.3676717040477 292.1610787693871L801.3676717040477 292.1610787693871Q822.1707994937088 292.1610787693871 830.5263886471902 304.0077017472683Q838.853362769324 315.8543247251495 838.853362769324 345.5281122325477Q838.853362769324 375.2018997399459 828.4661063901673 387.2488279372599Q818.0502349796631 399.2957561345739 790.2364245098549 399.2957561345739L790.2364245098549 399.2957561345739Q781.594685042898 399.2957561345739 761.5927781309682 397.6360843164166L761.5927781309682 397.6360843164166L755.8411568301128 397.03516865811827L755.8411568301128 249.29576181077334L771.0929685383512 249.29576181077334L771.0929685383512 299.37206666896697Q786.7453906854552 292.1610787693871 801.3676717040477 292.1610787693871ZM790.0361192904222 385.50331102506L790.0361192904222 385.50331102506Q810.2383314217849 385.50331102506 816.7053285063288 376.31788596249993Q823.2009406222202 367.16107593128737 823.2009406222202 345.3278070131149Q823.2009406222202 323.46592306359497 818.0502349796631 314.70972347124797Q812.899529337106 305.95352387890097 799.7079998858904 305.95352387890097L799.7079998858904 305.95352387890097Q787.7755318139666 305.95352387890097 775.2135330523969 310.5033138631597L775.2135330523969 310.5033138631597L771.0929685383512 311.9340654305367L771.0929685383512 384.47316989654854Q784.4848032089996 385.50331102506 790.0361192904222 385.50331102506ZM859.6851055903327 345.5281122325477Q859.6851055903327 317.2850762925265 869.7575966246665 304.7230775309568Q879.8587026903477 292.1610787693871 903.8667139909331 292.1610787693871Q927.8747252915185 292.1610787693871 937.8613712318098 304.7230775309568Q947.848017172101 317.2850762925265 947.848017172101 345.5281122325477Q947.848017172101 373.7425331412214 938.3764417960655 386.53345215357143Q928.9048664200301 399.2957561345739 903.7522538655431 399.2957561345739Q878.6282563424036 399.2957561345739 869.1566809663681 386.53345215357143Q859.6851055903327 373.7425331412214 859.6851055903327 345.5281122325477ZM875.5378329568694 345.21334688772475Q875.5378329568694 367.76199158958565 881.0033039442493 376.8329565267556Q886.4687749316294 385.90392146392554 903.8667139909331 385.90392146392554Q921.2646530502369 385.90392146392554 926.6442789435745 376.94741665214576Q931.9952898055642 367.990911840366 931.9952898055642 345.3278070131149Q931.9952898055642 322.66470218586386 926.0147482539286 314.10880781294964Q920.0342067022929 305.5529134400354 903.8667139909331 305.5529134400354Q887.6992212795735 305.5529134400354 881.6042196025477 314.10880781294964Q875.5378329568694 322.66470218586386 875.5378329568694 345.21334688772475Z " fill="#70da1c" transform="matrix(0.9231438296763713,0,0,0.9231438296763713,0,0.6283844541595869)"/></g></svg>